<svg width="414" height="133" viewBox="0 0 414 133" fill="none" xmlns="http://www.w3.org/2000/svg">
    <path d="M498 15.2637L484.75 28.2799C471.499 41.1012 444.998 67.4262 418.497 90.6799C391.996 114.226 365.495 134.701 338.994 132.264C312.494 129.826 285.993 103.501 259.492 95.8475C232.991 87.9012 206.49 98.6262 179.989 93.2637C153.488 87.9012 126.987 67.4262 100.486 59.4799C73.9852 51.8262 47.4842 56.7012 20.9833 72.4474C-5.51762 87.9012 -32.0185 114.226 -58.5195 108.864C-85.0204 103.501 -111.521 67.4262 -124.772 49.0474L-138.022 30.8637V-0.336304H-124.772C-111.521 -0.336304 -85.0204 -0.336304 -58.5195 -0.336304C-32.0185 -0.336304 -5.51762 -0.336304 20.9833 -0.336304C47.4842 -0.336304 73.9852 -0.336304 100.486 -0.336304C126.987 -0.336304 153.488 -0.336304 179.989 -0.336304C206.49 -0.336304 232.991 -0.336304 259.492 -0.336304C285.993 -0.336304 312.494 -0.336304 338.994 -0.336304C365.495 -0.336304 391.996 -0.336304 418.497 -0.336304C444.998 -0.336304 471.499 -0.336304 484.75 -0.336304H498V15.2637Z" fill="#FEF17E"/>
</svg>
